<svg id="Layer_1" style="enable-background:new 0 0 25 25;" version="1.1" viewBox="0 0 25 25" xml:space="preserve" xmlns="http://www.w3.org/2000/svg" xmlns:xlink="http://www.w3.org/1999/xlink"><g id="XMLID_1820_"><path d="M15.5,21.499v-7.184c0.581-0.413,1-1.512,1-2.816c0-1.657-0.672-3-1.5-3   c0,0-2.25,0.5-3,0.5s-3-0.5-3-0.5c-0.828,0-1.5,0.672-1.5,1.5s1,1.412,1,1.412v10.088h-5v0.5c0,0.828,0.672,1.5,1.5,1.5h13   c0.828,0,1.5-0.672,1.5-1.5v-0.5H15.5z" id="XMLID_1725_" style="fill:#67686B;"/><path d="M15.5,21.499v-7.184c0.581-0.413,1-1.512,1-2.816c0-1.657-0.672-3-1.5-3   c0,0-2.25,0.5-3,0.5s-3-0.5-3-0.5c-0.828,0-1.5,0.672-1.5,1.5s1,1.412,1,1.412v10.088h-5v0.5c0,0.828,0.672,1.5,1.5,1.5h13   c0.828,0,1.5-0.672,1.5-1.5v-0.5H15.5z" id="XMLID_1723_" style="fill:#67686B;"/><path d="M17.5,21.499v0.5c0,0.828-0.672,1.5-1.5,1.5h2   c0.828,0,1.5-0.672,1.5-1.5v-0.5H17.5z" id="XMLID_1732_" style="opacity:0.1;enable-background:new    ;"/><path d="M15,14.999c-0.807,0-0.897-0.86-0.956-1.43   c-0.072-0.682-0.17-1.194-0.544-1.479v9.409h2v-6.614C15.34,14.953,15.175,14.999,15,14.999z" id="XMLID_1729_" style="opacity:0.1;enable-background:new    ;"/><path d="M5.5,21.999v-0.5h-2v0.5   c0,0.828,0.672,1.5,1.5,1.5h2C6.172,23.499,5.5,22.827,5.5,21.999z" id="XMLID_1730_" style="opacity:0.2;fill:#FFFFFF;enable-background:new    ;"/><path d="M10,11.599   c-0.028,0.004-0.14,0.075-0.208,0.118C9.603,11.836,9.343,12,9,12c-0.174,0-0.339-0.029-0.5-0.071V21.5h2v-9.501   C10.317,11.818,10.101,11.619,10,11.599z" id="XMLID_1727_" style="opacity:0.2;fill:#FFFFFF;enable-background:new    ;"/><path d="M14.5,4.999c0,1.381-1.119,2.5-2.5,2.5s-2.5-1.119-2.5-2.5s2.5-4.5,2.5-4.5   s0.322,0.929,1,2C13.561,3.387,14.5,3.916,14.5,4.999z" id="XMLID_1728_" style="fill:#F99F38;"/><path d="M12,7.11c-0.551,0-1-0.621-1-1.383c0.026-0.371,0.337-1.225,0.789-2.228   c0.234,0.488,0.489,0.885,0.716,1.239C12.841,5.261,13,5.529,13,5.727C13,6.489,12.551,7.11,12,7.11z" id="XMLID_1721_" style="fill:#F8F8F8;"/><path d="M21,20.499c0-0.827-0.673-1.5-1.5-1.5s-1.5,0.673-1.5,1.5   c0,0.176,0.036,0.343,0.092,0.5H16v-6.457c0.604-0.589,1-1.698,1-3.043c0-1.995-0.86-3.5-2-3.5c-0.037,0-0.073,0.004-0.108,0.012   C14.41,8.118,13.251,8.358,12.5,8.455V7.949C13.916,7.709,15,6.483,15,5c0-0.919-0.531-1.517-1-2.044   c-0.213-0.24-0.415-0.467-0.577-0.723c-0.635-1.004-0.947-1.889-0.95-1.897c-0.06-0.171-0.208-0.297-0.388-0.328   c-0.181-0.029-0.361,0.039-0.475,0.18C11.343,0.521,9,3.488,9,5.001c0,1.483,1.084,2.71,2.5,2.949v0.506   c-0.751-0.097-1.909-0.337-2.392-0.444C9.072,8.004,9.036,8,9,8c-1.103,0-2,0.897-2,2c0,0.737,0.405,1.375,1,1.722v9.277H3.5   c-0.276,0-0.5,0.224-0.5,0.5v0.5c0,1.103,0.897,2,2,2h13c1.103,0,2-0.897,2-2v-0.092C20.581,21.7,21,21.15,21,20.499z M10,4.999   c0-0.726,1.004-2.328,1.875-3.513c0.169,0.359,0.403,0.806,0.703,1.28c0.205,0.325,0.444,0.593,0.675,0.853   c0.417,0.47,0.748,0.841,0.748,1.38c0,0.929-0.64,1.705-1.5,1.929V6.499c0-0.276-0.224-0.5-0.5-0.5s-0.5,0.224-0.5,0.5v0.429   C10.64,6.704,10,5.928,10,4.999z M9,11.999c0.343,0,0.603-0.164,0.792-0.283c0.067-0.042,0.18-0.113,0.208-0.118   c0.132,0.026,0.458,0.355,0.652,0.552c0.41,0.414,0.833,0.842,1.341,0.849c0.413,0.019,0.758-0.335,1.079-0.664   c0.095-0.098,0.242-0.249,0.339-0.324c0.461,0.264,0.555,0.818,0.633,1.558c0.059,0.569,0.149,1.43,0.956,1.43v6H9V11.999L9,11.999   z M18,22.999H5c-0.551,0-1-0.449-1-1h15C19,22.55,18.551,22.999,18,22.999z M19.5,20.999c-0.276,0-0.5-0.224-0.5-0.5   s0.224-0.5,0.5-0.5s0.5,0.224,0.5,0.5S19.776,20.999,19.5,20.999z" id="XMLID_1420_" style="fill:#303C42;"/><linearGradient gradientUnits="userSpaceOnUse" id="XMLID_2_" x1="5.9894" x2="22.1194" y1="10.9066" y2="18.428"><stop offset="0" style="stop-color:#FFFFFF;stop-opacity:0.2"/><stop offset="1" style="stop-color:#FFFFFF;stop-opacity:0"/></linearGradient><path d="M19.5,18.999c-0.827,0-1.5,0.673-1.5,1.5c0,0.176,0.036,0.343,0.092,0.5H16   v-6.457c0.604-0.589,1-1.698,1-3.043c0-1.995-0.86-3.5-2-3.5c-0.037,0-0.073,0.004-0.108,0.012   C14.41,8.118,13.251,8.358,12.5,8.455V7.949C13.916,7.709,15,6.483,15,5c0-0.919-0.531-1.517-1-2.044   c-0.213-0.24-0.415-0.467-0.577-0.723c-0.635-1.004-0.947-1.889-0.95-1.897c-0.06-0.171-0.208-0.297-0.388-0.328   c-0.181-0.029-0.361,0.039-0.475,0.18C11.343,0.521,9,3.488,9,5.001c0,1.483,1.084,2.71,2.5,2.949v0.506   c-0.751-0.097-1.909-0.337-2.392-0.444C9.072,8.004,9.036,8,9,8c-1.103,0-2,0.897-2,2c0,0.737,0.405,1.375,1,1.722v9.277H3.5   c-0.276,0-0.5,0.224-0.5,0.5v0.5c0,1.103,0.897,2,2,2h13c1.103,0,2-0.897,2-2v-0.092c0.581-0.207,1-0.757,1-1.408   C21,19.672,20.327,18.999,19.5,18.999z M19.5,20.999c-0.276,0-0.5-0.224-0.5-0.5s0.224-0.5,0.5-0.5s0.5,0.224,0.5,0.5   S19.776,20.999,19.5,20.999z" id="XMLID_1736_" style="fill:url(#XMLID_2_);"/></g></svg>